<?xml version="1.0" encoding="iso-8859-1"?>
<!-- Uploaded to: SVG Repo, www.svgrepo.com, Generator: SVG Repo Mixer Tools -->
<svg fill="#000000" height="800px" width="800px" version="1.1" id="Layer_1" xmlns="http://www.w3.org/2000/svg" xmlns:xlink="http://www.w3.org/1999/xlink" 
	 viewBox="0 0 512 512" xml:space="preserve">
<g>
	<g>
		<path d="M510.239,76.011L476.848,9.228C474.022,3.571,468.24,0,461.913,0s-12.109,3.571-14.935,9.228l-33.391,66.783
			c-1.152,2.321-1.761,4.875-1.761,7.467v378.435c0,27.656,22.387,50.087,50.087,50.087C489.578,512,512,489.613,512,461.913V83.478
			C512,80.886,511.391,78.332,510.239,76.011z M478.609,461.913c0,21.835-33.391,21.979-33.391,0v-16.696h33.391V461.913z
			 M478.609,100.174h-33.391V87.418l16.696-33.391l16.696,33.391V100.174z"/>
	</g>
</g>
<g>
	<g>
		<path d="M361.739,0H16.696C7.479,0,0,7.473,0,16.696v478.609C0,504.527,7.479,512,16.696,512h345.043
			c9.217,0,16.696-7.473,16.696-16.696V16.696C378.435,7.473,370.956,0,361.739,0z M150.261,66.783h77.913
			c9.217,0,16.696,7.473,16.696,16.696s-7.479,16.696-16.696,16.696h-77.913c-9.217,0-16.696-7.473-16.696-16.696
			S141.044,66.783,150.261,66.783z M294.957,434.087H83.478c-9.217,0-16.696-7.473-16.696-16.696
			c0-9.223,7.479-16.696,16.696-16.696h211.478c9.217,0,16.696,7.473,16.696,16.696
			C311.652,426.614,304.174,434.087,294.957,434.087z M66.783,350.609c0-9.223,7.479-16.696,16.696-16.696h100.174
			c9.217,0,16.696,7.473,16.696,16.696c0,9.223-7.479,16.696-16.696,16.696H83.478C74.261,367.304,66.783,359.831,66.783,350.609z
			 M294.957,367.304h-44.522c-9.217,0-16.696-7.473-16.696-16.696c0-9.223,7.479-16.696,16.696-16.696h44.522
			c9.217,0,16.696,7.473,16.696,16.696C311.652,359.831,304.174,367.304,294.957,367.304z M294.957,300.522H83.478
			c-9.217,0-16.696-7.473-16.696-16.696c0-9.223,7.479-16.696,16.696-16.696h211.478c9.217,0,16.696,7.473,16.696,16.696
			C311.652,293.049,304.174,300.522,294.957,300.522z M66.783,217.043c0-9.223,7.479-16.696,16.696-16.696h66.783
			c9.217,0,16.696,7.473,16.696,16.696c0,9.223-7.479,16.696-16.696,16.696H83.478C74.261,233.739,66.783,226.266,66.783,217.043z
			 M294.957,233.739h-77.913c-9.217,0-16.696-7.473-16.696-16.696c0-9.223,7.479-16.696,16.696-16.696h77.913
			c9.217,0,16.696,7.473,16.696,16.696C311.652,226.266,304.174,233.739,294.957,233.739z M294.957,166.957H83.478
			c-9.217,0-16.696-7.473-16.696-16.696s7.479-16.696,16.696-16.696h211.478c9.217,0,16.696,7.473,16.696,16.696
			C311.652,159.484,304.174,166.957,294.957,166.957z"/>
	</g>
</g>
</svg>